<?xml version="1.0" encoding="UTF-8"?>
<svg width="40px" height="40px" viewBox="0 0 40 40" version="1.1" xmlns="http://www.w3.org/2000/svg" xmlns:xlink="http://www.w3.org/1999/xlink">
    <!-- Generator: Sketch 55.2 (78181) - https://sketchapp.com -->
    <title>cam</title>
    <desc>Created with Sketch.</desc>
    <g id="cam" stroke="none" stroke-width="1" fill="none" fill-rule="evenodd">
        <rect id="Rectangle" fill="#1A75BB" x="0" y="0" width="40" height="40" rx="20"></rect>
        <path d="M30.999957,15.0937406 L30.999957,26.9062164 C30.999957,27.4530901 30.8085509,27.9179333 30.4257394,28.3007448 C30.0429279,28.6835563 29.5780847,28.8749624 29.031211,28.8749624 L11.968746,28.8749624 C11.4218723,28.8749624 10.9570291,28.6835563 10.5742176,28.3007448 C10.1914061,27.9179333 10,27.4530901 10,26.9062164 L10,15.0937406 C10,14.5468669 10.1914061,14.0820237 10.5742176,13.6992122 C10.9570291,13.3164007 11.4218723,13.1249946 11.968746,13.1249946 L15.5781136,13.1249946 L16.0703001,11.7714818 C16.2343622,11.3886703 16.4804555,11.0810537 16.8085798,10.8486321 C17.1367041,10.6162105 17.505844,10.5 17.9159994,10.5 L23.0839576,10.5 C23.494113,10.5 23.8632529,10.6162105 24.1913772,10.8486321 C24.5195015,11.0810537 24.7655948,11.3886703 24.9296569,11.7714818 L25.4218434,13.1249946 L29.031211,13.1249946 C29.5780847,13.1249946 30.0429279,13.3164007 30.4257394,13.6992122 C30.8085509,14.0820237 30.999957,14.5468669 30.999957,15.0937406 Z" id="Path" stroke="#FFFFFF" stroke-width="2"></path>
        <circle id="Oval" stroke="#FFFFFF" stroke-width="2" stroke-linecap="round" cx="20.5" cy="20.5" r="3.5"></circle>
    </g>
</svg>