<?xml version="1.0" encoding="UTF-8"?>
<svg width="177px" height="94px" viewBox="0 0 177 94" version="1.1" xmlns="http://www.w3.org/2000/svg" xmlns:xlink="http://www.w3.org/1999/xlink">
    <!-- Generator: Sketch 55.2 (78181) - https://sketchapp.com -->
    <title>Brand/Logo</title>
    <desc>Created with Sketch.</desc>
    <defs>
        <polygon id="path-1" points="0.003365551 0.458978182 55.5129154 0.458978182 55.5129154 62.7951543 0.003365551 62.7951543"></polygon>
        <polygon id="path-3" points="0 93.463198 175.642908 93.463198 175.642908 0.590705511 0 0.590705511"></polygon>
    </defs>
    <g id="UI-Design" stroke="none" stroke-width="1" fill="none" fill-rule="evenodd">
        <g id="Login-1.1" transform="translate(-100.000000, -64.000000)">
            <g id="Brand/Logo-White" transform="translate(100.000000, 64.000000)">
                <g id="Group-46" transform="translate(0.470649, 0.000000)">
                    <path d="M159.366572,46.4713342 C160.361719,43.2348587 160.911828,39.8069946 160.943832,36.1954211 C160.989725,30.9960312 159.623209,25.670821 156.391999,21.5417895 C152.956084,17.1516661 147.60294,14.3995692 142.031805,13.4680266 C147.522023,12.333872 153.378176,12.9623827 158.486156,15.2354175 C170.021533,20.3674669 176.264754,33.1869579 175.236999,45.2208106 C174.157312,57.8548201 167.10191,66.9623176 158.697504,74.0247927 C149.49843,81.7553557 137.6098,87.3203924 122.762298,88.0912631 C108.714295,88.8201937 108.893035,87.7197093 97.6897772,83.0348239 C114.105482,84.6958878 131.919103,77.2205095 144.430907,67.2423121 C151.483894,61.6176142 156.849719,54.6543776 159.366572,46.4713342" id="Fill-1" fill="#FFFFFF"></path>
                    <path d="M159.366572,46.4713342 C160.361719,43.2348587 160.911828,39.8069946 160.943832,36.1954211 C160.989725,30.9960312 159.623209,25.670821 156.391999,21.5417895 C152.956084,17.1516661 147.60294,14.3995692 142.031805,13.4680266 C147.522023,12.333872 153.378176,12.9623827 158.486156,15.2354175 C170.021533,20.3674669 176.264754,33.1869579 175.236999,45.2208106 C174.157312,57.8548201 167.10191,66.9623176 158.697504,74.0247927 C149.49843,81.7553557 137.6098,87.3203924 122.762298,88.0912631 C108.714295,88.8201937 108.893035,87.7197093 97.6897772,83.0348239 C114.105482,84.6958878 131.919103,77.2205095 144.430907,67.2423121 C151.483894,61.6176142 156.849719,54.6543776 159.366572,46.4713342 Z" id="Stroke-3" stroke="#0071BC" stroke-width="0.586243799"></path>
                    <path d="M126.185412,38.166251 C125.164902,39.1285103 121.757368,42.5362903 119.659588,41.4033172 C117.341402,40.1510215 119.722388,34.5286864 120.154142,33.3939412 C123.059876,25.7596631 127.388888,19.7592765 134.640541,15.9958917 C134.63873,15.9013789 134.642353,15.8110009 134.780635,15.8239964 L134.835585,16.2859281 C135.981092,25.7289464 131.557275,33.1027233 126.185412,38.166251" id="Fill-5" fill="#FFFFFF"></path>
                    <path d="M126.185412,38.166251 C125.164902,39.1285103 121.757368,42.5362903 119.659588,41.4033172 C117.341402,40.1510215 119.722388,34.5286864 120.154142,33.3939412 C123.059876,25.7596631 127.388888,19.7592765 134.640541,15.9958917 C134.63873,15.9013789 134.642353,15.8110009 134.780635,15.8239964 L134.835585,16.2859281 C135.981092,25.7289464 131.557275,33.1027233 126.185412,38.166251 Z" id="Stroke-7" stroke="#0071BC" stroke-width="0.586243799"></path>
                    <g id="Group-11" transform="translate(68.102024, 0.131727)">
                        <mask id="mask-2" fill="white">
                            <use xlink:href="#path-1"></use>
                        </mask>
                        <g id="Clip-10"></g>
                        <path d="M31.8329337,0.576115085 C43.5102152,-0.132731528 49.3965603,2.49295447 55.4332643,5.25450273 C56.3251531,5.66268024 49.5088767,4.16346965 45.8881827,4.26093606 C36.6414037,4.51080449 26.8004348,8.54296031 21.1332879,16.0047523 C15.1527421,23.8800382 13.3641337,35.0496887 15.5011644,44.4938884 C16.548243,49.1232475 18.3736863,53.5440875 21.2975355,57.3559102 C22.7075289,59.1941857 24.2153463,61.2244406 26.0528666,62.6580829 C27.259362,63.598486 17.801235,59.5781443 12.207758,54.3362236 C6.65232362,49.1297453 1.72006407,42.7743447 0.381325157,34.142365 C-2.25267535,17.1566281 8.94937496,1.96663586 31.8329337,0.576115085" id="Fill-9" fill="#FFFFFF" mask="url(#mask-2)"></path>
                    </g>
                    <path d="M158.854687,15.3485376 C146.136969,8.34690515 134.016461,3.55214852 122.650766,7.93045777 C111.285072,12.3093577 105.255011,27.7775722 109.35154,32.6721581 C111.657649,35.1720238 117.622495,39.8220576 119.096496,40.9544401 C117.216102,34.9948122 129.467647,4.71938261 158.854687,15.3485376" id="Fill-12" fill="#FFFFFF"></path>
                    <path d="M158.854687,15.3485376 C146.136969,8.34690515 134.016461,3.55214852 122.650766,7.93045777 C111.285072,12.3093577 105.255011,27.7775722 109.35154,32.6721581 C111.657649,35.1720238 117.622495,39.8220576 119.096496,40.9544401 C117.216102,34.9948122 129.467647,4.71938261 158.854687,15.3485376 Z" id="Stroke-14" stroke="#0071BC" stroke-width="0.586243799"></path>
                    <path d="M119.524446,9.5084094 C119.524446,9.5084094 117.869893,5.4136388 111.964224,4.47914268 C120.870431,3.37038843 127.228384,6.69133482 127.228384,6.69133482 C127.228384,6.69133482 122.938623,7.31748266 119.524446,9.5084094" id="Fill-16" fill="#FFFFFF"></path>
                    <path d="M119.524446,9.5084094 C119.524446,9.5084094 117.869893,5.4136388 111.964224,4.47914268 C120.870431,3.37038843 127.228384,6.69133482 127.228384,6.69133482 C127.228384,6.69133482 122.938623,7.31748266 119.524446,9.5084094 Z" id="Stroke-18" stroke="#0071BC" stroke-width="0.586243799"></path>
                    <path d="M152.169024,79.0824133 C152.169024,79.0824133 145.844282,70.1355876 140.937988,68.0657555 C137.809433,66.7455287 133.805898,65.2303691 127.377294,66.6232527 C124.770467,67.1885579 120.756061,70.3376089 118.165538,70.9714359 C116.649267,71.3418083 113.604044,70.6176033 113.073258,72.6212764 C112.544284,74.6166797 115.371517,75.687038 116.86303,76.0450056 C119.750649,76.7384938 122.600224,75.8931943 125.332049,74.9787821 C125.332049,74.9787821 127.512557,73.8363577 128.277636,74.6013213 C128.998635,75.3231634 128.030057,75.8412122 127.141188,76.5169793 C125.315141,77.9063186 121.102068,79.9418898 118.869629,80.5355489 C115.820179,81.3465875 110.846857,82.1387236 106.288986,81.2160416 C103.033622,80.5579957 97.3079014,78.6701009 88.681278,71.3199522 C87.5774374,70.379549 85.5829157,70.8674718 84.9983874,71.8309125 C84.2139842,73.1233761 84.9313598,74.7992077 85.9911193,75.5842553 C89.3497417,78.0711255 92.769957,80.5018787 96.3689123,82.6479118 C98.5313047,83.9380126 100.769782,85.1099723 103.12118,86.0361986 C105.490694,86.9695133 108.012982,87.9672149 110.561236,88.303917 C111.779808,88.4657704 113.037027,88.4982592 114.266469,88.5277944 C118.15648,88.6199445 122.057965,88.3818902 125.916577,87.9081444 C129.217833,87.5035111 132.496143,86.9128056 135.724334,86.1265765 C146.879888,83.4099219 152.169024,79.0824133 152.169024,79.0824133" id="Fill-20" fill="#FFFFFF"></path>
                    <path d="M152.169024,79.0824133 C152.169024,79.0824133 145.844282,70.1355876 140.937988,68.0657555 C137.809433,66.7455287 133.805898,65.2303691 127.377294,66.6232527 C124.770467,67.1885579 120.756061,70.3376089 118.165538,70.9714359 C116.649267,71.3418083 113.604044,70.6176033 113.073258,72.6212764 C112.544284,74.6166797 115.371517,75.687038 116.86303,76.0450056 C119.750649,76.7384938 122.600224,75.8931943 125.332049,74.9787821 C125.332049,74.9787821 127.512557,73.8363577 128.277636,74.6013213 C128.998635,75.3231634 128.030057,75.8412122 127.141188,76.5169793 C125.315141,77.9063186 121.102068,79.9418898 118.869629,80.5355489 C115.820179,81.3465875 110.846857,82.1387236 106.288986,81.2160416 C103.033622,80.5579957 97.3079014,78.6701009 88.681278,71.3199522 C87.5774374,70.379549 85.5829157,70.8674718 84.9983874,71.8309125 C84.2139842,73.1233761 84.9313598,74.7992077 85.9911193,75.5842553 C89.3497417,78.0711255 92.769957,80.5018787 96.3689123,82.6479118 C98.5313047,83.9380126 100.769782,85.1099723 103.12118,86.0361986 C105.490694,86.9695133 108.012982,87.9672149 110.561236,88.303917 C111.779808,88.4657704 113.037027,88.4982592 114.266469,88.5277944 C118.15648,88.6199445 122.057965,88.3818902 125.916577,87.9081444 C129.217833,87.5035111 132.496143,86.9128056 135.724334,86.1265765 C146.879888,83.4099219 152.169024,79.0824133 152.169024,79.0824133 Z" id="Stroke-22" stroke="#0071BC" stroke-width="0.586243799"></path>
                    <path d="M115.148575,79.0166678 C115.323692,77.9776168 107.967572,73.0316396 107.49838,72.667765 C105.053385,70.7757352 99.4369613,66.2544752 98.6561812,66.0619052 C97.6924341,65.8244416 96.496808,66.1540553 96.3651684,67.4128487 C96.3277296,67.7708163 96.1447626,68.6090274 100.655534,72.3529189 C105.012323,75.9686274 110.872702,79.365184 111.739833,79.628048 C112.709015,79.9222193 114.878653,80.6174797 115.148575,79.0166678" id="Fill-24" fill="#FFFFFF"></path>
                    <path d="M115.148575,79.0166678 C115.323692,77.9776168 107.967572,73.0316396 107.49838,72.667765 C105.053385,70.7757352 99.4369613,66.2544752 98.6561812,66.0619052 C97.6924341,65.8244416 96.496808,66.1540553 96.3651684,67.4128487 C96.3277296,67.7708163 96.1447626,68.6090274 100.655534,72.3529189 C105.012323,75.9686274 110.872702,79.365184 111.739833,79.628048 C112.709015,79.9222193 114.878653,80.6174797 115.148575,79.0166678 Z" id="Stroke-26" stroke="#0071BC" stroke-width="0.586243799"></path>
                    <path d="M89.2814461,69.6680442 C88.9608009,69.1925263 88.8164804,68.1032653 89.3466621,67.3902838 C89.7826429,66.8031225 90.8665564,66.5479377 91.336353,66.7694523 C93.2729049,67.6832737 96.7124434,70.5416977 98.4297973,71.8932319 C99.9647879,73.1012247 101.518498,74.2855892 103.093947,75.443372 C103.914581,76.0476638 104.792581,76.6212388 105.543169,77.3105921 C105.906687,77.6449315 106.203782,78.0412948 106.4888,78.4394304 C106.592059,78.5829718 106.695921,78.733011 106.729737,78.905497 C107.072121,80.658711 102.691782,79.0342708 102.054718,78.7654998 C100.229879,77.9952198 98.6133681,77.0559981 96.9811574,75.944881 C95.5850525,74.9932544 94.1768707,73.9937807 92.763858,72.8956591 C91.564005,71.9635258 90.1334806,70.9303819 89.2814461,69.6680442" id="Fill-28" fill="#FFFFFF"></path>
                    <path d="M89.2814461,69.6680442 C88.9608009,69.1925263 88.8164804,68.1032653 89.3466621,67.3902838 C89.7826429,66.8031225 90.8665564,66.5479377 91.336353,66.7694523 C93.2729049,67.6832737 96.7124434,70.5416977 98.4297973,71.8932319 C99.9647879,73.1012247 101.518498,74.2855892 103.093947,75.443372 C103.914581,76.0476638 104.792581,76.6212388 105.543169,77.3105921 C105.906687,77.6449315 106.203782,78.0412948 106.4888,78.4394304 C106.592059,78.5829718 106.695921,78.733011 106.729737,78.905497 C107.072121,80.658711 102.691782,79.0342708 102.054718,78.7654998 C100.229879,77.9952198 98.6133681,77.0559981 96.9811574,75.944881 C95.5850525,74.9932544 94.1768707,73.9937807 92.763858,72.8956591 C91.564005,71.9635258 90.1334806,70.9303819 89.2814461,69.6680442 Z" id="Stroke-30" stroke="#0071BC" stroke-width="0.586243799"></path>
                    <path d="M17.4897755,63.4685308 C17.3466627,60.8428448 17.1751688,57.6583514 17.1751688,55.340423 L17.1184068,55.340423 C16.4330352,57.5195356 15.6625206,59.8935811 14.6915273,62.4909132 L11.2936546,71.6244018 L9.40963773,71.6244018 L6.26840191,62.6580829 C5.35477449,59.9768706 4.61264092,57.5750619 4.07038222,55.340423 L4.01301632,55.340423 C3.95625428,57.6867053 3.81314146,60.8150817 3.64164761,63.6640544 L3.12776993,71.7354545 L0.757652554,71.7354545 L2.10061843,52.9102605 L5.26963142,52.9102605 L8.55277236,62.015986 C9.35166798,64.3339144 9.98088131,66.400793 10.4941551,68.3554375 L10.551521,68.3554375 C11.0660026,66.45691 11.7507702,64.3906221 12.6070317,62.015986 L16.0332855,52.9102605 L19.2022985,52.9102605 L20.4021516,71.7354545 L17.9462873,71.7354545 L17.4897755,63.4685308 Z" id="Fill-32" fill="#FFFFFF"></path>
                    <mask id="mask-4" fill="white">
                        <use xlink:href="#path-3"></use>
                    </mask>
                    <g id="Clip-35"></g>
                    <path d="M24.4873885,71.7358679 L27.0006187,71.7358679 L27.0006187,58.2175723 L24.4873885,58.2175723 L24.4873885,71.7358679 Z M27.2850328,54.4187452 C27.2850328,55.2569563 26.6854082,55.9274071 25.6860339,55.9274071 C24.7724065,55.9274071 24.1727819,55.2569563 24.1727819,54.4187452 C24.1727819,53.5811248 24.8013913,52.8823202 25.7440036,52.8823202 C26.6570272,52.8823202 27.2850328,53.5533616 27.2850328,54.4187452 L27.2850328,54.4187452 Z" id="Fill-34" fill="#FFFFFF" mask="url(#mask-4)"></path>
                    <path d="M30.8260788,69.2498247 C31.5965933,69.6963981 32.9105743,70.1990885 34.1665856,70.1990885 C35.9654594,70.1990885 36.8223248,69.3337049 36.8223248,68.1883269 C36.8223248,67.0151858 36.1085722,66.4008521 34.2813174,65.730992 C31.7680872,64.8366639 30.5984267,63.5241162 30.5984267,61.903811 C30.5984267,59.7258798 32.4250777,57.9384049 35.3664386,57.9384049 C36.7649589,57.9384049 37.9925891,58.3016888 38.7347227,58.7760253 L38.1350981,60.5635002 C37.5928394,60.2285702 36.593465,59.7536429 35.3084689,59.7536429 C33.8242018,59.7536429 33.0247023,60.5912634 33.0247023,61.5972348 C33.0247023,62.714259 33.8242018,63.2169493 35.6224717,63.9151633 C37.9925891,64.7811375 39.2486003,65.953688 39.2486003,67.9650402 C39.2486003,70.3674396 37.3362024,72.0426804 34.1092197,72.0426804 C32.5965715,72.0426804 31.1974475,71.6516333 30.227058,71.0934166 L30.8260788,69.2498247 Z" id="Fill-36" fill="#FFFFFF" mask="url(#mask-4)"></path>
                    <path d="M42.1341654,69.2498247 C42.90468,69.6963981 44.2180571,70.1990885 45.4746722,70.1990885 C47.273546,70.1990885 48.1298076,69.3337049 48.1298076,68.1883269 C48.1298076,67.0151858 47.4166589,66.4008521 45.589404,65.730992 C43.0761738,64.8366639 41.9053057,63.5241162 41.9053057,61.903811 C41.9053057,59.7258798 43.7325605,57.9384049 46.6733176,57.9384049 C48.0724417,57.9384049 49.3006757,58.3016888 50.0428093,58.7760253 L49.4431847,60.5635002 C48.900926,60.2285702 47.9009478,59.7536429 46.6159517,59.7536429 C45.1316846,59.7536429 44.3327889,60.5912634 44.3327889,61.5972348 C44.3327889,62.714259 45.1316846,63.2169493 46.9305584,63.9151633 C49.3006757,64.7811375 50.556687,65.953688 50.556687,67.9650402 C50.556687,70.3674396 48.6436852,72.0426804 45.4173063,72.0426804 C43.9040543,72.0426804 42.5055341,71.6516333 41.5345408,71.0934166 L42.1341654,69.2498247 Z" id="Fill-37" fill="#FFFFFF" mask="url(#mask-4)"></path>
                    <path d="M61.0646703,64.8368411 C58.3237881,64.780724 55.2115371,65.256242 55.2115371,67.8813373 C55.2115371,69.5010518 56.2966584,70.2270289 57.5532735,70.2270289 C59.3799245,70.2270289 60.5507926,69.1100047 60.9505424,67.9652175 C61.0362893,67.6858138 61.0646703,67.4070007 61.0646703,67.1831234 L61.0646703,64.8368411 Z M63.4921536,68.495671 C63.4921536,69.6688122 63.5489156,70.8141901 63.6914246,71.7356907 L61.436039,71.7356907 L61.2361642,70.032096 L61.1510211,70.032096 C60.3799027,71.0935938 58.8950317,72.0422669 56.924664,72.0422669 C54.1264159,72.0422669 52.6989108,70.1159762 52.6989108,68.160741 C52.6989108,64.8923674 55.6686528,63.1048925 61.0079083,63.1332464 L61.0079083,62.8544334 C61.0079083,61.7645817 60.6933016,59.726057 57.8678802,59.7538202 C56.5538992,59.7538202 55.2115371,60.1165133 54.2411477,60.7592009 L53.670508,59.1117233 C54.8123913,58.4129186 56.4965333,57.9379914 58.238645,57.9379914 C62.4637944,57.9379914 63.4921536,60.7592009 63.4921536,63.4404132 L63.4921536,68.495671 Z" id="Fill-38" fill="#FFFFFF" mask="url(#mask-4)"></path>
                    <path d="M69.1181782,65.0047196 C69.1181782,67.9653356 70.8313051,70.1993838 73.2859617,70.1993838 C75.6850639,70.1993838 77.4833339,67.9930988 77.4833339,64.9486026 C77.4833339,62.6578466 76.3136734,59.7811107 73.3439314,59.7811107 C70.4025705,59.7811107 69.1181782,62.4623231 69.1181782,65.0047196 M80.0533261,64.8647224 C80.0533261,69.8644538 76.4845634,72.042385 73.1730415,72.042385 C69.4605621,72.042385 66.5487898,69.3611727 66.5487898,65.0885998 C66.5487898,60.590968 69.603071,57.9381096 73.4006935,57.9381096 C77.3704137,57.9381096 80.0533261,60.7593191 80.0533261,64.8647224" id="Fill-39" fill="#FFFFFF" mask="url(#mask-4)"></path>
                    <path d="M9.92424003,85.537525 C9.92424003,85.2451258 9.89706671,84.8458088 9.8149429,84.5534096 C9.46168973,83.0908228 8.15737036,81.8668809 6.36272352,81.8668809 C3.88753597,81.8668809 2.42017667,83.9951929 2.42017667,86.8140396 C2.42017667,89.420823 3.75227322,91.575126 6.30777303,91.575126 C7.91220663,91.575126 9.38077362,90.5112654 9.8149429,88.7822704 C9.89706671,88.4632894 9.92424003,88.1443084 9.92424003,87.7715732 L9.92424003,85.537525 Z M12.2895266,75.4211024 L12.2895266,89.846131 C12.2895266,90.9897369 12.3438732,92.2940146 12.3982199,93.1712123 L10.2774932,93.1712123 L10.1687999,90.9371641 L10.08728,90.9371641 C9.38077362,92.3731692 7.80351335,93.4630208 5.65561334,93.4630208 C2.47391946,93.4630208 -6.03851562e-05,90.8308371 -6.03851562e-05,86.9209573 C-0.0266298539,82.6383423 2.7190832,80.0321496 5.90017322,80.0321496 C7.93937995,80.0321496 9.27147649,80.9631015 9.87049724,81.9732079 L9.92424003,81.9732079 L9.92424003,75.4211024 L12.2895266,75.4211024 Z" id="Fill-40" fill="#FFFFFF" mask="url(#mask-4)"></path>
                    <path d="M17.7834285,86.7610533 C17.7834285,89.5799 19.4150354,91.708212 21.7525448,91.708212 C24.0369153,91.708212 25.7494383,89.6064818 25.7494383,86.7078898 C25.7494383,84.5264144 24.6353322,81.7873129 21.8074953,81.7873129 C19.0068318,81.7873129 17.7834285,84.3403421 17.7834285,86.7610533 M28.1962448,86.6275539 C28.1962448,91.3886403 24.7983721,93.463198 21.6450592,93.463198 C18.1101122,93.463198 15.336622,90.9095781 15.336622,86.8413893 C15.336622,82.5587743 18.2453749,80.0317361 21.8618419,80.0317361 C25.6413489,80.0317361 28.1962448,82.7182648 28.1962448,86.6275539" id="Fill-41" fill="#FFFFFF" mask="url(#mask-4)"></path>
                    <path d="M35.6580989,91.415163 C36.1472187,91.4954989 36.7999823,91.5220807 37.642959,91.5220807 C40.0897656,91.5220807 42.3469627,90.6437016 42.3469627,88.0375089 C42.3469627,85.6173884 40.1984588,84.5801095 37.6157857,84.5801095 L35.6580989,84.5801095 L35.6580989,91.415163 Z M35.6580989,82.8517052 L37.8066028,82.8517052 C40.2799788,82.8517052 41.7485458,81.5480181 41.7485458,79.8190231 C41.7485458,77.7444653 40.1441122,76.8938494 37.7516523,76.8938494 C36.6641157,76.8938494 36.0391293,76.9735946 35.6580989,77.0533399 L35.6580989,82.8517052 Z M33.2928124,75.5104171 C34.3260024,75.2711814 35.9841788,75.1111002 37.6157857,75.1111002 C39.9810723,75.1111002 41.5039859,75.5104171 42.6186959,76.4141965 C43.570366,77.1059127 44.168179,78.170364 44.168179,79.5797874 C44.168179,81.3353641 42.9719491,82.8517052 41.0686089,83.5162489 L41.0686089,83.5959941 C42.8089091,83.9947203 44.847512,85.4047344 44.847512,88.0640906 C44.847512,89.6064227 44.2231295,90.8037828 43.2708556,91.6543987 C42.020279,92.799186 39.953899,93.3302302 36.9630222,93.3302302 C35.3314153,93.3302302 34.0814425,93.2244939 33.2928124,93.1175763 L33.2928124,75.5104171 Z" id="Fill-42" fill="#FFFFFF" mask="url(#mask-4)"></path>
                    <path d="M56.4048686,85.4844206 C56.4320419,84.0218337 55.7792784,81.7068588 53.087912,81.7068588 C50.6411054,81.7068588 49.6079154,83.8623432 49.4177022,85.4844206 L56.4048686,85.4844206 Z M49.389925,87.1596614 C49.4448755,90.3252522 51.4834784,91.6283486 53.9031116,91.6283486 C55.6156346,91.6283486 56.6766018,91.3353587 57.5467519,90.9632142 L57.981525,92.6390457 C57.1385482,93.0111902 55.6711889,93.4630799 53.5770317,93.4630799 C49.5251878,93.4630799 47.1061584,90.8308961 47.1061584,86.9475981 C47.1061584,83.0637094 49.4448755,80.0322087 53.2781252,80.0322087 C57.6010985,80.0322087 58.7158085,83.702262 58.7158085,86.0698097 C58.7158085,86.5482812 58.6886352,86.8938439 58.6348924,87.1596614 L49.389925,87.1596614 Z" id="Fill-43" fill="#FFFFFF" mask="url(#mask-4)"></path>
                    <path d="M61.680297,83.7821254 C61.680297,82.4258656 61.6265542,81.3614142 61.5716037,80.2981443 L63.6651571,80.2981443 L63.7738504,82.3986931 L63.856578,82.3986931 C64.5896538,81.175342 65.8136609,80.0317361 68.0153037,80.0317361 C69.7833811,80.0317361 71.1420471,81.0955968 71.7138945,82.6119378 L71.7676373,82.6119378 C72.175841,81.8670582 72.7193074,81.3348325 73.2633776,80.9361063 C74.0514039,80.3507171 74.8943807,80.0317361 76.1449573,80.0317361 C77.9124308,80.0317361 80.4951039,81.149351 80.4951039,85.6168567 L80.4951039,93.1713895 L78.1575946,93.1713895 L78.1575946,85.9104374 C78.1575946,83.4093903 77.2059245,81.9468034 75.3025844,81.9468034 C73.9155373,81.9468034 72.8823473,82.9315095 72.4475742,84.0479429 C72.3388809,84.3940963 72.2573609,84.7928226 72.2573609,85.2187212 L72.2573609,93.1713895 L69.9192477,93.1713895 L69.9192477,85.4573663 C69.9192477,83.4093903 68.9941471,81.9468034 67.1729308,81.9468034 C65.7043638,81.9468034 64.5896538,83.116991 64.2092273,84.2871786 C64.0733607,84.6067503 64.0190141,85.0320583 64.0190141,85.4313752 L64.0190141,93.1713895 L61.680297,93.1713895 L61.680297,83.7821254 Z" id="Fill-44" fill="#FFFFFF" mask="url(#mask-4)"></path>
                    <polygon id="Fill-45" fill="#FFFFFF" mask="url(#mask-4)" points="53.8025703 56.1495123 62.7945239 56.1495123 62.7945239 54.1641511 53.8025703 54.1641511"></polygon>
                </g>
            </g>
        </g>
    </g>
</svg>